<svg version="1.1" id="Layer_1" xmlns="http://www.w3.org/2000/svg" xmlns:xlink="http://www.w3.org/1999/xlink" x="0px" y="0px"
	 viewBox="0 0 1024 768" style="enable-background:new 0 0 1024 768;" xml:space="preserve">
<style type="text/css">
	.st0{opacity:0.01;}
	.st1{fill:#FFFFFF;}
	.st2{fill:#2500BF;}
	.st3{fill:url(#SVGID_1_);}
	.st4{opacity:0.6;fill:#D089BC;}
	.st5{opacity:0.5;fill:url(#SVGID_00000095305765334089970890000006644130206785644220_);}
	.st6{opacity:0.5;fill:url(#SVGID_00000003081419877121077690000006462575282315518081_);}
	.st7{fill:#FBD2C3;}
	.st8{fill:#9B3182;}
	.st9{fill:#880A2C;}
	.st10{fill:url(#SVGID_00000046328139311454754880000017671307816676907178_);}
	.st11{fill:url(#SVGID_00000001645822257546762660000008533107440986291596_);}
	.st12{fill:url(#SVGID_00000003827788206715901370000006454258233458556048_);}
	.st13{fill:url(#SVGID_00000180354180156762256660000008821459498667767445_);}
	.st14{fill:#B21D51;}
	.st15{fill:#42003D;}
	.st16{opacity:0.6;fill:#D077B7;}
	.st17{fill:#00CC0A;}
	.st18{opacity:0.6;fill:#D177B8;}
	.st19{fill:#FF6563;}
	.st20{fill:#842751;}
	.st21{fill:#DC3F57;}
	.st22{fill:#E5C7FF;}
	.st23{fill:#CC0000;}
	.st24{fill:url(#SVGID_00000109015424668086453820000001622974960588151978_);}
	.st25{fill:url(#SVGID_00000100372763792997466430000003069092708716788671_);}
	.st26{opacity:0.9;fill:#D177B8;}
	.st27{fill:#FFD4E0;}
</style>
<image style="overflow:visible;" width="1706" height="1878" id="carita" xlink:href="img/face.png"  transform="matrix(0.2917 0 0 0.2917 263.1461 110.0565)">
</image>
<g id="botones" class="st0">
	<ellipse id="btn_x5F_nose" class="st1" cx="512" cy="428.94" rx="38.8" ry="21.67"/>
	<ellipse id="btn_x5F_ojo" class="st1" cx="428.97" cy="370.93" rx="58.37" ry="36.35"/>
	<path id="btn_x5F_mouth" class="st1" d="M453.79,483.82c9.79,16.78,20.62,28.66,33.55,30.06c12.93,1.4,88.43-46.83,88.43-46.83
		v-6.64c0,0-96.12,11.88-105.55,11.18c-9.44-0.7-23.42-6.29-23.77-4.89C446.1,468.09,453.79,483.82,453.79,483.82z"/>
	<path id="btn_x5F_hair" class="st1" d="M267.85,614.89l-9.79,25.86l55.92-5.59l67.11,22.79l52.43-13l25.86-30.06v-76.89l-72-50.27
		l-2.1-174.82l6.29,4.89l5.59-11.18l4.19,6.99c0,0-18.87-46.44-13.98-65.51s10.49-41.99,10.49-41.99s-9.79,64.86,9.79,81.64
		c19.57,16.78,16.93,17.48,16.93,17.48l16.63-15.38l8.39,0.7c0,0-9.79-48.23-9.09-65.71c0.7-17.48-2.8-32.65,18.87-66.66
		c0,0-11.88,118.38,6.29,135.86c18.17,17.48-1.4-53.83,13.28-83.18s-2.11-45.44,32.15-68.16l34.26,156.23l30.41-15.38l26.91,11.88
		l27.96-44.04l-9.79,55.22l16.08,23.07l-4.89,158.95l-65.01,49.36l0.7,76.19c0,0,55.22,33.55,57.32,33.55
		c2.1,0,25.86,10.49,55.92-7.69c30.06-18.17,27.96-14.68,27.96-14.68s4.89,20.27,37.05,9.09s3.5-18.87,3.5-18.87
		s13.28-125.13-13.28-164.97s-13.28-179.86-78.29-280.77c0,0-17.48-28.9-37.05-33.8c-19.57-4.89-60.82-9.79-60.82-9.79l-42.64-16.21
		l-6.3,6.06l-9.78-6.06l-34.95,14.81c0,0-78.29-9.62-111.15,59.85S246.88,596.01,267.85,614.89z"/>
</g>
<g id="mensajes">
	<g id="nose">
		<path class="st2" d="M853.88,94.46h-75.26c-6.6,0-12,5.4-12,12v75.26c0,1.45,0.27,2.84,0.75,4.13L512.66,417.03
			c-0.82,0.74-0.88,2.01-0.14,2.82c0.74,0.82,2.01,0.88,2.82,0.14l254.07-230.6c2.21,2.64,5.52,4.33,9.2,4.33h75.26
			c6.6,0,12-5.4,12-12v-75.26C865.88,99.86,860.48,94.46,853.88,94.46z"/>
		<g>
			<g>
				<path class="st1" d="M785.71,120.28c0-1.27-0.01-2.64-0.04-3.81H791c0.08,0.37,0.14,1.18,0.17,1.62
					c0.56-0.84,1.78-1.97,4.17-1.97c2.94,0,4.8,1.98,4.8,5.58v9.46h-5.45v-8.82c0-1.41-0.41-2.21-1.66-2.21
					c-1.14,0-1.86,0.6-1.86,2.66v8.37h-5.46V120.28z"/>
				<path class="st1" d="M818.21,123.8c0,4.58-2.86,7.71-7.9,7.71c-5.2,0-7.78-3.42-7.78-7.66c0-4.43,2.69-7.73,7.96-7.73
					C815.33,116.12,818.21,119.35,818.21,123.8z M808.11,123.82c0,2.79,0.82,4.02,2.28,4.02c1.45,0,2.22-1.25,2.22-3.97
					c0-3.03-0.76-4.06-2.24-4.06C809.01,119.81,808.11,120.78,808.11,123.82z"/>
				<path class="st1" d="M824.86,126.62c0.23,0.94,1.01,1.46,2.2,1.46c1.08,0,1.54-0.33,1.54-1.01c0-0.72-0.65-0.98-2.58-1.42
					c-5.06-1.14-5.79-2.8-5.79-4.88c0-2.15,1.49-4.66,6.51-4.66c4.79,0,6.51,2.45,6.65,4.52h-4.89c-0.11-0.52-0.43-1.26-1.91-1.26
					c-0.98,0-1.33,0.41-1.33,0.9c0,0.58,0.48,0.82,2.86,1.36c4.68,1.05,5.69,2.68,5.69,4.98c0,2.62-1.91,4.88-6.93,4.88
					c-4.79,0-6.8-2.29-7.09-4.89H824.86z"/>
				<path class="st1" d="M840.98,124.89c0,1.48,0.57,2.96,2.18,2.96c1.29,0,1.67-0.55,1.94-1.32h5.36c-0.53,1.95-2.2,4.97-7.39,4.97
					c-5.54,0-7.58-3.73-7.58-7.57c0-4.42,2.34-7.82,7.68-7.82c5.69,0,7.42,3.85,7.42,7.51c0,0.49-0.01,0.86-0.06,1.26H840.98z
					 M845.12,122.05c-0.02-1.37-0.41-2.53-1.97-2.53c-1.46,0-2.02,1.07-2.11,2.53H845.12z"/>
			</g>
		</g>
		<g>
			<linearGradient id="SVGID_1_" gradientUnits="userSpaceOnUse" x1="818.0813" y1="173.6504" x2="818.0813" y2="142.6927">
				<stop  offset="0" style="stop-color:#F28D91"/>
				<stop  offset="0.5" style="stop-color:#F69992"/>
				<stop  offset="1" style="stop-color:#F79D92"/>
			</linearGradient>
			<path class="st3" d="M794.88,168.03c0,0-6.1-25.34,22.68-25.34c28.78,0,23.96,24.84,23.96,24.84l-1.28,0.5
				c0,0-7.85,5.62-22.68,5.62C802.74,173.65,794.88,168.03,794.88,168.03z"/>
			<path class="st4" d="M817.56,166.05c-15.05,0-22.68,1.99-22.68,1.99c7.7-0.24,13.88,5.55,22.68,5.62
				c8.79-0.07,14.98-5.86,22.68-5.62C840.23,168.03,831.67,166.05,817.56,166.05z"/>
			
				<linearGradient id="SVGID_00000023246306136615421880000005523756100229450890_" gradientUnits="userSpaceOnUse" x1="829.2739" y1="169.1378" x2="840.2349" y2="169.1378">
				<stop  offset="0.016" style="stop-color:#8866B4"/>
				<stop  offset="0.9944" style="stop-color:#C097C6"/>
			</linearGradient>
			<path style="opacity:0.5;fill:url(#SVGID_00000023246306136615421880000005523756100229450890_);" d="M829.27,170.74
				c0,0,3.88-4.71,10.96-2.71L829.27,170.74z"/>
			
				<linearGradient id="SVGID_00000179637693665118648990000011050073809876041605_" gradientUnits="userSpaceOnUse" x1="794.8843" y1="168.9942" x2="805.4642" y2="168.9942">
				<stop  offset="0.016" style="stop-color:#8866B4"/>
				<stop  offset="0.9944" style="stop-color:#C097C6"/>
			</linearGradient>
			<path style="opacity:0.5;fill:url(#SVGID_00000179637693665118648990000011050073809876041605_);" d="M794.88,168.03
				c0,0,4.52-2.54,10.58,2.55L794.88,168.03z"/>
			<path class="st7" d="M827.33,161.8c-0.1-1.45,1.5-3.08,2.72-2.93c1.22,0.15,0.6,3.29,0,3.89
				C829.44,163.37,827.33,161.8,827.33,161.8z"/>
		</g>
	</g>
	<g id="eye">
		<path class="st8" d="M423.83,361.12L248.4,219.98c1.13-1.83,1.8-3.98,1.8-6.28v-70.19c0-6.6-5.4-12-12-12H168c-6.6,0-12,5.4-12,12
			v70.19c0,6.6,5.4,12,12,12h70.19c2.86,0,5.5-1.02,7.56-2.71l175.56,141.24c0.86,0.69,2.12,0.56,2.81-0.3
			C424.83,363.07,424.69,361.82,423.83,361.12z"/>
		<g>
			<g>
				<path class="st1" d="M184.67,159.69c0,1.48,0.57,2.96,2.18,2.96c1.29,0,1.67-0.55,1.94-1.32h5.36c-0.53,1.95-2.2,4.97-7.39,4.97
					c-5.54,0-7.58-3.73-7.58-7.57c0-4.42,2.34-7.82,7.68-7.82c5.69,0,7.42,3.85,7.42,7.51c0,0.49-0.01,0.86-0.06,1.26H184.67z
					 M188.81,156.84c-0.02-1.37-0.41-2.53-1.97-2.53c-1.46,0-2.02,1.07-2.11,2.53H188.81z"/>
				<path class="st1" d="M200.97,151.27c0.96,3.73,2.02,8.39,2.23,9.98h0.1c0.3-1.92,0.94-5.06,2.12-9.98h5.38l-4.36,13.82
					c-1.49,4.72-2.66,6.51-7.29,6.51c-0.36,0-1.45-0.05-2.25-0.13v-3.91c0.19,0.02,0.67,0.06,1.03,0.06c1.27,0,1.96-0.35,2.35-1.44
					l-5.21-14.9H200.97z"/>
				<path class="st1" d="M217.18,159.69c0,1.48,0.57,2.96,2.18,2.96c1.29,0,1.67-0.55,1.94-1.32h5.36c-0.53,1.95-2.2,4.97-7.39,4.97
					c-5.54,0-7.58-3.73-7.58-7.57c0-4.42,2.34-7.82,7.68-7.82c5.69,0,7.42,3.85,7.42,7.51c0,0.49-0.01,0.86-0.06,1.26H217.18z
					 M221.32,156.84c-0.02-1.37-0.41-2.53-1.97-2.53c-1.46,0-2.02,1.07-2.11,2.53H221.32z"/>
			</g>
		</g>
		<g>
			<path class="st9" d="M222.11,194.18l3.16,2.04c0,0-3.11,5.88-17.06,8.95c-13.96,3.07-25.69-0.6-25.69-0.6
				S202.2,210.19,222.11,194.18z"/>
			
				<linearGradient id="SVGID_00000025436423221054827500000003656999591874443442_" gradientUnits="userSpaceOnUse" x1="201.5735" y1="206.1005" x2="201.5735" y2="180.365">
				<stop  offset="0" style="stop-color:#EDE1FF"/>
				<stop  offset="0.996" style="stop-color:#BCC8FA"/>
			</linearGradient>
			<path style="fill:url(#SVGID_00000025436423221054827500000003656999591874443442_);" d="M179.95,203.35
				c-1.7-2.13,8.82-19.15,21.04-22.17c12.22-3.02,21.58,3.19,22.17,5.61c0.59,2.42,1.2,12.79-15.92,17.78
				C196.17,207.8,181.44,205.21,179.95,203.35z"/>
			<g>
				
					<linearGradient id="SVGID_00000077306026443781014360000012499699179505768075_" gradientUnits="userSpaceOnUse" x1="201.1497" y1="205.2124" x2="201.1497" y2="179.7645">
					<stop  offset="0" style="stop-color:#471F4B"/>
					<stop  offset="1" style="stop-color:#310A39"/>
				</linearGradient>
				<path style="fill:url(#SVGID_00000077306026443781014360000012499699179505768075_);" d="M213.87,192.49
					c0,7.03-5.7,12.72-12.72,12.72c-7.03,0-12.72-5.7-12.72-12.72c0-7.03,5.7-12.72,12.72-12.72
					C208.18,179.76,213.87,185.46,213.87,192.49z"/>
				
					<linearGradient id="SVGID_00000109019422397159850070000008384929568249770638_" gradientUnits="userSpaceOnUse" x1="201.1498" y1="204.4681" x2="201.1498" y2="180.5089">
					<stop  offset="0" style="stop-color:#57335B"/>
					<stop  offset="1" style="stop-color:#310A39"/>
				</linearGradient>
				<circle style="fill:url(#SVGID_00000109019422397159850070000008384929568249770638_);" cx="201.15" cy="192.49" r="11.98"/>
				
					<linearGradient id="SVGID_00000168090520179521989500000001921010598542293408_" gradientUnits="userSpaceOnUse" x1="201.1498" y1="200.2613" x2="201.1498" y2="184.7156">
					<stop  offset="0" style="stop-color:#A699BC"/>
					<stop  offset="0.9944" style="stop-color:#724A60"/>
				</linearGradient>
				<circle style="fill:url(#SVGID_00000168090520179521989500000001921010598542293408_);" cx="201.15" cy="192.49" r="7.77"/>
			</g>
			<path class="st14" d="M180.05,201.24c0,0,7.52-19.41,21.26-23.11c13.74-3.69,20.93,7.27,20.93,7.27s-7.36-7.27-21.25-4.23
				C187.98,184.03,180.05,201.24,180.05,201.24z"/>
			<path class="st15" d="M180.05,201.24c0,0,7.74-16.44,21.44-19.42c13.7-2.98,21.48,4.52,21.48,4.52l4.13-4.36l-3.1-0.2
				c0,0-8.76-5.25-19.15-3.62C193.62,179.91,184.49,190.71,180.05,201.24z"/>
			<path class="st9" d="M180.4,200.56c0,0,2.14,4.18,4.84,4.62c0,0-5.92-0.66-6.06-1.82C179.05,202.19,180.4,200.56,180.4,200.56z"
				/>
			<path class="st1" d="M210.1,189.82c-0.77,0.68,2.8,0.85,5.46-0.2c2.38-0.94,3.53-2.47,3.31-2.74
				C218.64,186.62,213.14,187.13,210.1,189.82z"/>
			<path class="st1" d="M208.07,190.5c-1.01-0.34-2.19,0.18-2.24,0.72c-0.05,0.54,1.21,1.21,1.79,0.98
				C208.21,191.98,208.64,190.69,208.07,190.5z"/>
			<path class="st16" d="M180.4,200.56c0,0,17.17-24.13,42.76-13.77l-0.19-0.45c0,0-4.77-7.38-19.39-5.67
				C188.96,182.38,181.61,197.76,180.4,200.56z"/>
		</g>
	</g>
	<g id="mouth">
		<path class="st17" d="M927.76,420.51h-86.49c-6.6,0-12,5.4-12,12v52.59l-333.72,13.07c-1.1,0.04-1.96,0.97-1.92,2.08
			c0.04,1.1,0.97,1.96,2.08,1.92l333.56-13.06V519c0,6.6,5.4,12,12,12h86.49c6.6,0,12-5.4,12-12v-86.49
			C939.76,425.91,934.36,420.51,927.76,420.51z"/>
		<g>
			<g>
				<path class="st1" d="M847.86,448.86c0-1.2,0-2.47-0.03-3.59h4.67c0.05,0.3,0.12,0.93,0.15,1.4c0.71-0.9,1.8-1.71,3.69-1.71
					c1.96,0,2.91,0.96,3.34,1.8c0.76-0.88,1.84-1.8,4.02-1.8c2.44,0,4.25,1.54,4.25,4.9v8.52h-4.76v-8.1c0-0.97-0.32-1.76-1.36-1.76
					c-1.09,0-1.5,0.71-1.5,2.21v7.65h-4.79v-8.06c0-0.99-0.25-1.79-1.34-1.79c-1.08,0-1.53,0.61-1.53,2.31v7.54h-4.81V448.86z"/>
				<path class="st1" d="M884.14,451.8c0,4.09-2.55,6.88-7.05,6.88c-4.64,0-6.95-3.05-6.95-6.84c0-3.95,2.4-6.9,7.11-6.9
					C881.57,444.95,884.14,447.84,884.14,451.8z M875.13,451.83c0,2.49,0.74,3.59,2.04,3.59c1.29,0,1.98-1.11,1.98-3.55
					c0-2.7-0.68-3.62-2-3.62C875.93,448.25,875.13,449.11,875.13,451.83z"/>
				<path class="st1" d="M899.04,454.19c0,1.16,0,2.94,0.03,4.19h-4.78c-0.06-0.32-0.08-1.03-0.1-1.38
					c-0.84,1.24-1.97,1.71-3.62,1.71c-2.81,0-4.31-1.71-4.31-4.81v-8.62h4.87v7.8c0,1.19,0.34,2.03,1.44,2.03
					c1.15,0,1.61-0.64,1.61-2.58v-7.25h4.87V454.19z"/>
				<path class="st1" d="M900.75,445.27h1.89v-3.4h4.82v3.4h2.3v3.29h-2.3v5.62c0,0.81,0.26,1.12,1.28,1.12c0.18,0,0.42,0,0.68-0.02
					v3.01c-0.76,0.25-2.03,0.3-2.84,0.3c-3.1,0-3.97-1.51-3.97-3.99v-6.04h-1.86V445.27z"/>
				<path class="st1" d="M916.66,440.27v6.38c0.65-0.8,1.74-1.69,3.7-1.69c2.7,0,4.3,1.7,4.3,4.95v8.47h-4.85v-7.89
					c0-1.31-0.41-1.96-1.49-1.96c-1.47,0-1.67,1.14-1.67,2.75v7.1h-4.87v-18.11H916.66z"/>
			</g>
		</g>
		<g>
			<path class="st18" d="M848.76,492.71c0,0,7.44,13.51,17.96,17.08s17.75-4.33,29.05-11.2c0,0-16.02,4.4-28.22,0.95
				C855.35,496.08,848.76,492.71,848.76,492.71z"/>
			<path class="st19" d="M843.56,484c0,0,16.33,35.97,42.97,20.12c30.36-18.07,40.93-25.31,40.93-25.31s-14.25,12.21-41.15,14.09
				C859.42,494.78,843.56,484,843.56,484z"/>
			<path class="st20" d="M839.24,481.46c0,0,22.24,14.84,46.54,13.14c24.31-1.7,46.7-18.85,46.7-18.85s-17.26,12.1-48.7,14.9
				C857.56,492.99,839.24,481.46,839.24,481.46z"/>
			<path class="st18" d="M908.99,484.08c10.32-1.83,17.74-4.94,18.42-5.23c-0.05,0.04-0.17,0.13-0.35,0.23
				c-0.22,0.14-0.42,0.27-0.65,0.41c-0.27,0.18-0.6,0.37-0.98,0.58c-1.55,0.89-3.85,2.03-6.3,2.67c-4.4,1.17-10.2,1.37-10.2,1.37
				L908.99,484.08z"/>
			<path class="st18" d="M867.23,487.24c-0.44,0.09-3.45,0.63-9.3,0.45c-3.97-0.11-7.7-1.32-9.95-2.21
				c-0.24-0.09-0.45-0.17-0.64-0.26c-0.32-0.14-0.65-0.28-0.97-0.42c-0.24-0.11-0.4-0.2-0.51-0.23c0-0.02-0.03-0.02-0.03-0.02
				c-0.03-0.02-0.03-0.02-0.03-0.02l0.05,0.02C846.63,484.76,855.55,487.12,867.23,487.24z"/>
			<path class="st21" d="M845.8,484.53c6.39,2.58,25-2.47,40.77-3.7c14.01-1.09,25.91,3.04,40.89-2.02c0,0-18.11,9.87-43.91,13.01
				C859.95,494.68,845.8,484.53,845.8,484.53z"/>
			<path class="st18" d="M885.78,494.6c0,0,12.63-0.73,22.69-3.74c10.06-3,13.5-8.2,13.5-8.2S906.4,491.36,885.78,494.6z"/>
			<path class="st22" d="M877.69,493.16c0,0,14.15,1.34,23.94-1.26c9.79-2.61,18.98-9.89,18.98-9.89S898.62,491.62,877.69,493.16z"
				/>
		</g>
	</g>
	<g id="hair">
		<path class="st23" d="M318.22,472.99l-132.85-81.48v-44.94c0-6.6-5.4-12-12-12h-70.37c-6.6,0-12,5.4-12,12v70.37
			c0,6.6,5.4,12,12,12h70.37c6.6,0,12-5.4,12-12v-20.74l130.76,80.2c0.94,0.58,2.17,0.28,2.75-0.66
			C319.45,474.8,319.16,473.57,318.22,472.99z"/>
		<g>
			<g>
				<path class="st1" d="M117.2,346.64v7.14c0.72-0.9,1.95-1.89,4.15-1.89c3.03,0,4.82,1.91,4.82,5.54v9.49h-5.43v-8.84
					c0-1.47-0.46-2.2-1.67-2.2c-1.65,0-1.87,1.28-1.87,3.08v7.96h-5.46v-20.28H117.2z"/>
				<path class="st1" d="M142.83,362.57c0,1.66,0.08,3.86,0.18,4.35h-5.04c-0.11-0.3-0.21-1-0.23-1.36
					c-0.7,0.91-1.78,1.71-4.14,1.71c-3.29,0-5.07-2.07-5.07-4.68c0-3.45,2.77-4.94,7.25-4.94c0.49,0,1.34,0,1.8,0v-0.81
					c0-0.94-0.33-1.63-1.65-1.63c-1.24,0-1.56,0.57-1.69,1.51h-5.04c0.19-2.45,1.65-4.86,6.87-4.84c4.81,0.02,6.76,1.87,6.76,5.41
					V362.57z M137.58,360.41c-0.28,0-0.78,0-1.21,0c-1.88,0-2.5,0.66-2.5,1.74c0,0.86,0.51,1.56,1.6,1.56
					c1.85,0,2.11-1.27,2.11-2.85V360.41z"/>
				<path class="st1" d="M145.98,346.64h5.46v3.8h-5.46V346.64z M145.98,352.25h5.46v14.68h-5.46V352.25z"/>
				<path class="st1" d="M154.55,356.46c0-1.4-0.01-2.91-0.04-4.21h5.34c0.07,0.46,0.13,1.74,0.13,2.39
					c0.57-1.41,1.99-2.72,4.51-2.74v4.99c-3.09-0.13-4.48,0.57-4.48,4.01v6.03h-5.46V356.46z"/>
			</g>
		</g>
		<g>
			
				<linearGradient id="SVGID_00000052064272706234144880000007478001699423236229_" gradientUnits="userSpaceOnUse" x1="128.06" y1="418.39" x2="128.06" y2="377.0289">
				<stop  offset="0" style="stop-color:#471F4B"/>
				<stop  offset="1" style="stop-color:#310A39"/>
			</linearGradient>
			<path style="fill:url(#SVGID_00000052064272706234144880000007478001699423236229_);" d="M138.08,378.53l-0.81,0.63
				c0,0-0.15,0.04-0.39,0.23c-0.03,0.02-0.06,0.04-0.09,0.07c-0.52,0.43-1.37,1.46-2.01,3.87c-1,3.75-0.26,8.12-0.26,8.12
				s-0.98-1.54-1.21-2.57c0,0,0.07,1.22,0.38,2.55c0,0,0-0.01-0.01-0.02c-0.19-0.37-1.66-3.47-1.42-7.08v0
				c0.08-1.21,0.36-2.48,0.94-3.72c0-0.01,0.01-0.02,0.01-0.03c0.02-0.03,0.03-0.07,0.05-0.1c0.01-0.04,0.02-0.06,0.03-0.07
				c0,0-0.02,0.01-0.03,0.03l0,0c-0.37,0.42-2.99,3.7-0.84,10.37c0,0,0,0,0,0.01h-0.84l-0.18,0.21l-1.08,0.95
				c0,0-2.85-1.15-2.04-7.68c0-0.01,0-0.02,0-0.04c-0.09,0.26-1.15,3.64,0.26,8.28l-0.46-0.59l-0.1,1.26l-0.51-0.61
				c0,0-0.16,6.67,0.28,12.52c0.62,8.24,2.5,12.57,2.5,12.57s-1.95-0.17-2.75-1.66c0,0,0.44,1.61,1.18,1.95c0,0-1.49,1.14-4.55-0.34
				c0,0-0.02-0.01-0.02-0.02c-0.64-0.31-1.36-0.74-2.14-1.31l-0.01,0.01c-0.1,0.11-0.98,1.07-3.15,0.97
				c-0.24-0.01-0.5-0.04-0.78-0.08c0.09,0,0.72-0.03,0.95-0.85c0.25-0.89-0.79-3.41-0.02-8.38c0.77-4.97,2.51-12.21,3.35-16.26
				c0.85-4.05,2.15-9.4,4.9-11.71c2.76-2.31,6-1.7,6.38-1.89c0.39-0.2,2.41-1.15,2.94-1.08c0.13,0.02,0.29,0.13,0.46,0.28l0.03,0.02
				h0C137.54,377.77,138.08,378.53,138.08,378.53z"/>
			
				<linearGradient id="SVGID_00000090986512694839745580000017320399360322670730_" gradientUnits="userSpaceOnUse" x1="146.0281" y1="418.3892" x2="146.0281" y2="377.0289">
				<stop  offset="0" style="stop-color:#471F4B"/>
				<stop  offset="1" style="stop-color:#310A39"/>
			</linearGradient>
			<path style="fill:url(#SVGID_00000090986512694839745580000017320399360322670730_);" d="M155.1,416.35
				c-0.11-0.39,0.03-1.09,0.15-2.19v0c0.16-1.39,0.3-3.4-0.13-6.19c-0.77-4.97-2.51-12.21-3.35-16.26c-0.85-4.05-2.14-9.4-4.9-11.71
				c-2.76-2.31-6-1.7-6.38-1.89c-0.39-0.2-2.41-1.15-2.94-1.08c-0.14,0.02-0.31,0.13-0.5,0.3h0c-0.5,0.44-1.03,1.2-1.03,1.2
				l0.81,0.63l0.05,0.23l2.69,12.05c0,0,2.4-1.96,2.08-0.62h0.85l0.17,0.21l1.5,0.26c0,0,2.85-1.44,1.61-7.03
				c0.09,0.26,1.15,3.64-0.26,8.28l0.46-0.59l0.11,1.26l0.51-0.61c0,0,0.16,6.67-0.28,12.52c-0.62,8.24-2.49,12.57-2.49,12.57
				s1.95-0.17,2.75-1.66c0,0-0.44,1.61-1.18,1.95c0,0,2.19,1.67,6.72-1.67c0,0,1.03,1.33,3.93,0.9
				C155.96,417.2,155.33,417.17,155.1,416.35z M142.35,388.26c0.29-1.94,0.2-4.8-1.57-7.86
				C140.91,380.5,143.51,382.51,142.35,388.26z"/>
			<path class="st18" d="M137.05,377.33l-0.22,1.83l-0.04,0.29c-0.52,0.43-1.37,1.46-2.01,3.87c-1,3.75-0.26,8.12-0.26,8.12
				s-0.98-1.54-1.21-2.57c0,0,0.07,1.22,0.38,2.55c0,0,0-0.01-0.01-0.02c-1.87-4.64-1.23-8.33-0.73-10.02
				c0.02-0.09,0.05-0.17,0.08-0.25c0.01-0.04,0.02-0.08,0.04-0.12c0.02-0.08,0.05-0.15,0.07-0.22c0.06-0.14,0.1-0.25,0.13-0.32
				c0.01-0.04,0.02-0.06,0.03-0.07c0.01-0.01,0.01-0.01,0.01-0.01c-1.33,4.6,0.68,8.23,0.68,8.23c-1.27-5.12,2.55-11.6,2.55-11.6
				l0.46,0.28L137.05,377.33L137.05,377.33z"/>
			<path class="st26" d="M132.27,384.32c0.08-1.21,0.36-2.48,0.94-3.72c-0.04,0.12-0.09,0.26-0.14,0.41
				c-0.02,0.04-0.03,0.08-0.04,0.12C132.79,381.89,132.48,383,132.27,384.32z"/>
			<path class="st26" d="M133.92,378.48l-0.5,1.6c0,0-0.05,0.13-0.14,0.36l0,0c-0.37,0.42-2.99,3.7-0.84,10.37
				c-0.09-0.13-1.56-2.25-1.56-5.5C130.87,381.97,133.92,378.48,133.92,378.48z"/>
			<path class="st18" d="M128.56,392.55c-2.58-5.17-0.26-8.3-0.26-8.3c0,0,0,0.01,0,0.02C128.22,384.52,127.16,387.91,128.56,392.55
				z"/>
			<path class="st26" d="M125.97,386.83c-0.01,0.02-0.02,0.08-0.05,0.16C125.95,386.91,125.96,386.85,125.97,386.83z"/>
			<path class="st26" d="M128.69,417.97c0,0-1.49,1.14-4.55-0.34c0,0-0.02-0.01-0.02-0.02c-0.33-0.21-2.97-2.09-3.31-7.94
				c-0.35-5.86,4.54-20.91,5.12-22.69c-0.6,1.95-6.06,19.99-4.32,25.46c1.16,3.63,5.49,3.11,5.49,3.11s-1.35-1.54-1.82-6.09
				c-0.47-4.55,0.46-14.41,0.46-14.41s-0.3,7.36,0,13.94c0.31,6.58,3.97,8.1,3.97,8.1s-1.96-4.27-2.49-10.45
				c-0.52-6.17,0-16.51,0-16.51l0.26,2.46c0,0-0.16,6.67,0.28,12.52c0.62,8.24,2.5,12.57,2.5,12.57s-1.95-0.17-2.75-1.66
				C127.51,416.02,127.94,417.63,128.69,417.97z"/>
			<path class="st26" d="M121.97,416.3l-0.01,0.01c-0.1,0.11-0.98,1.07-3.15,0.97c0,0,1.86-0.21,1.89-0.98
				c0.03-0.77-1.35-5.48-1.12-8.33c0.22-2.76,3.02-14.65,3.19-15.39c-0.1,0.5-1.23,5.98-2.15,12.88
				C119.66,412.71,121.97,416.3,121.97,416.3z"/>
			<path class="st26" d="M144.18,391.3c0,0,3.29-5.75,0-10.51C144.18,380.79,148.74,388.23,144.18,391.3z"/>
			<path class="st26" d="M156.05,417.2c-2.9,0.44-3.93-0.9-3.93-0.9c-4.53,3.34-6.72,1.67-6.72,1.67c0.74-0.34,1.18-1.95,1.18-1.95
				c-0.8,1.49-2.75,1.66-2.75,1.66s1.87-4.32,2.49-12.57c0.44-5.85,0.28-12.52,0.28-12.52s0.05-1.11,0.45-6.97
				c0,0-0.05,12.57-0.45,19.84c-0.4,7.28-0.57,9.55-0.57,9.55s2.89-2.89,3.25-8.98c0,0,0.09,4.39-2.18,9.28c0,0,4.27-2.56,4.16-8.68
				c-0.11-5.73-2.31-19.77-2.58-21.5c0.31,1.66,2.68,14.84,2.97,20.94c0.3,6.51-3.73,9.86-3.73,9.86s5.08-1.15,5.7-5.97
				c0.59-4.6-2.83-18.89-3.14-20.17c0.33,1.24,3.86,14.72,3.79,20.47l1,3.89v0c-0.13,1.09-0.26,1.8-0.15,2.19
				C155.33,417.17,155.96,417.2,156.05,417.2z"/>
			<path class="st18" d="M136.87,379.4c0,0,3.49,4,2.69,12.05C139.57,391.44,137.91,382.6,136.87,379.4z"/>
			<path class="st18" d="M140.78,380.4c0,0,3.67,2.64,0.87,10.42C141.65,390.82,145.48,384.34,140.78,380.4z"/>
			<path class="st27" d="M134.42,382.08c0,0-0.5,1.47-0.65,3.07h-0.33c0,0-0.02-1.14,0.4-3.19
				C133.83,381.95,134.1,381.83,134.42,382.08z"/>
			<path class="st27" d="M131.98,381.39c0,0-1.06,0.91-3.19,0.86c0,0-0.58,2.04-0.58,2.9c0,0,1.92-0.32,2.66-0.33
				C130.87,384.82,131.07,382.94,131.98,381.39z"/>
			<path class="st27" d="M138.37,382.02c0,0,0.36,0.57,1.54,0.3c0,0,0.46,0.61,0.75,2.69l-1.35,0.13
				C139.31,385.15,139.23,383.95,138.37,382.02z"/>
			<path class="st27" d="M142.15,381.95c0,0,1.79,0.83,2.97,0.7c0,0,0.35,0.89,0.5,1.93c0,0-0.88-0.56-2.6,0.04
				C143.02,384.63,143.04,383.49,142.15,381.95z"/>
			<path class="st27" d="M145.66,382.68c0,0,1.31-0.06,1.91-0.21c0.6-0.15,0.61-0.99,0.61-0.99s0.76,1.1,1.18,2.1
				c0,0-0.89-0.81-1.43-0.65s-0.56,0.61-1,1.03s-0.91,0.44-0.91,0.44S145.91,383.2,145.66,382.68z"/>
			<path class="st27" d="M126.6,380.61c0,0,0.14,1.07,1.56,1.44c0,0,0.11,1.79-0.48,3.56c0,0,0.08-1.04-0.73-1.8
				c-0.81-0.75-2.29-0.1-2.29-0.1S125.75,381.38,126.6,380.61z"/>
			<path class="st27" d="M141.04,381.95c0,0,1.01,1.66,0.91,2.91C141.95,384.87,141.33,382.35,141.04,381.95z"/>
		</g>
	</g>
</g>
</svg>
