<?xml version="1.0" encoding="utf-8"?>
<!-- Generator: Adobe Illustrator 27.0.0, SVG Export Plug-In . SVG Version: 6.00 Build 0)  -->
<svg version="1.1" id="Layer_1" xmlns="http://www.w3.org/2000/svg" xmlns:xlink="http://www.w3.org/1999/xlink" x="0px" y="0px"
	 viewBox="0 0 16 16" style="enable-background:new 0 0 16 16;" xml:space="preserve">
<style type="text/css">
	.st0{fill:#00193D;}
</style>
<path class="st0" d="M15.7,3c0-0.5-0.2-1-0.6-1.4C14.7,1.2,14.2,1,13.7,1H6.6C6.3,1,6,1.1,5.8,1.2C5.5,1.3,5.3,1.5,5.1,1.7L0.2,7.3
	C0.1,7.5,0,7.8,0,8c0,0.2,0.1,0.5,0.2,0.7l4.8,5.6c0.2,0.2,0.4,0.4,0.7,0.5C6,14.9,6.3,15,6.6,15h7.1c0.5,0,1-0.2,1.4-0.6
	c0.4-0.4,0.6-0.9,0.6-1.4V3z M5.8,5.9c0,0-0.1-0.1-0.1-0.2c0-0.1,0-0.1,0-0.2c0-0.1,0-0.1,0-0.2c0-0.1,0.1-0.1,0.1-0.2
	c0,0,0.1-0.1,0.2-0.1c0.1,0,0.1,0,0.2,0c0.1,0,0.1,0,0.2,0c0.1,0,0.1,0.1,0.2,0.1l2.1,2.1l2.1-2.1c0,0,0.1-0.1,0.2-0.1
	c0.1,0,0.1,0,0.2,0c0.1,0,0.1,0,0.2,0c0.1,0,0.1,0.1,0.2,0.1c0,0,0.1,0.1,0.1,0.2c0,0.1,0,0.1,0,0.2c0,0.1,0,0.1,0,0.2
	c0,0.1-0.1,0.1-0.1,0.2L9.4,8l2.1,2.1c0.1,0.1,0.1,0.2,0.1,0.4c0,0.1-0.1,0.3-0.1,0.4c-0.1,0.1-0.2,0.1-0.4,0.1
	c-0.1,0-0.3-0.1-0.4-0.1L8.7,8.7l-2.1,2.1c0,0-0.1,0.1-0.2,0.1c-0.1,0-0.1,0-0.2,0c-0.1,0-0.1,0-0.2,0c-0.1,0-0.1-0.1-0.2-0.1
	c0,0-0.1-0.1-0.1-0.2c0-0.1,0-0.1,0-0.2c0-0.1,0.1-0.3,0.1-0.4L8,8L5.8,5.9z"/>
</svg>
