<?xml version="1.0" standalone="no"?>
<!DOCTYPE svg PUBLIC "-//W3C//DTD SVG 20010904//EN"
 "http://www.w3.org/TR/2001/REC-SVG-20010904/DTD/svg10.dtd">
<svg version="1.0" xmlns="http://www.w3.org/2000/svg"
 width="915.000000pt" height="915.000000pt" viewBox="0 0 915.000000 915.000000"
 preserveAspectRatio="xMidYMid meet">
<metadata>
Created by potrace 1.14, written by Peter Selinger 2001-2017
</metadata>
<g transform="translate(0.000000,915.000000) scale(0.100000,-0.100000)"
fill="#000000" stroke="none">
<path d="M1359 9146 c-2 -2 -26 -6 -54 -9 -360 -42 -734 -249 -960 -532 -22
-27 -42 -52 -45 -55 -4 -3 -27 -37 -53 -76 -62 -94 -127 -228 -165 -339 -43
-127 -51 -161 -72 -310 -11 -74 -7 -6508 3 -6550 4 -16 12 -55 18 -85 18 -90
77 -259 124 -353 37 -74 126 -220 145 -237 3 -3 23 -27 45 -55 54 -68 167
-177 240 -231 33 -25 68 -52 78 -60 9 -8 20 -14 23 -14 3 0 18 -8 32 -19 86
-60 290 -147 419 -177 188 -44 70 -43 3428 -42 1755 0 3219 3 3255 8 89 11
142 20 160 26 8 3 25 8 37 10 12 2 63 18 114 34 250 82 506 258 670 461 19 23
44 53 56 67 13 14 23 28 23 33 0 4 6 14 13 21 18 19 66 102 108 188 47 97 92
230 121 355 l23 100 2 3230 c1 2035 -2 3252 -8 3290 -5 33 -12 75 -14 94 -8
50 -14 77 -42 170 -80 273 -260 541 -483 720 -25 20 -47 39 -50 42 -9 9 -93
66 -135 89 -171 97 -343 161 -495 185 -25 4 -54 10 -65 14 -21 6 -6489 14
-6496 7z"/>
</g>
</svg>
